<svg width="10" height="10" viewBox="0 0 10 10" fill="none" xmlns="http://www.w3.org/2000/svg">
<path fill-rule="evenodd" clip-rule="evenodd" d="M5.00039 0.625C5.08327 0.625 5.16276 0.657924 5.22137 0.716529C5.27997 0.775134 5.31289 0.85462 5.31289 0.9375V8.30813L7.27914 6.34125C7.33782 6.28257 7.41741 6.24961 7.50039 6.24961C7.58338 6.24961 7.66297 6.28257 7.72164 6.34125C7.78032 6.39993 7.81329 6.47952 7.81329 6.5625C7.81329 6.64548 7.78032 6.72507 7.72164 6.78375L5.22164 9.28375C5.19262 9.31285 5.15813 9.33594 5.12017 9.3517C5.0822 9.36745 5.0415 9.37556 5.00039 9.37556C4.95929 9.37556 4.91859 9.36745 4.88062 9.3517C4.84266 9.33594 4.80817 9.31285 4.77914 9.28375L2.27914 6.78375C2.22047 6.72507 2.1875 6.64548 2.1875 6.5625C2.1875 6.47952 2.22047 6.39993 2.27914 6.34125C2.33782 6.28257 2.41741 6.24961 2.50039 6.24961C2.58338 6.24961 2.66297 6.28257 2.72164 6.34125L4.68789 8.30813V0.9375C4.68789 0.85462 4.72082 0.775134 4.77942 0.716529C4.83803 0.657924 4.91751 0.625 5.00039 0.625Z" fill="url(#paint0_linear_1_309)"/>
<defs>
<linearGradient id="paint0_linear_1_309" x1="5.00039" y1="0.625" x2="5.00039" y2="9.37556" gradientUnits="userSpaceOnUse">
<stop stop-color="#5A8FFF"/>
<stop offset="1" stop-color="#003094"/>
</linearGradient>
</defs>
</svg>
