<svg width="13" height="13" viewBox="0 0 13 13" fill="none" xmlns="http://www.w3.org/2000/svg">
<path d="M7.98527 0.586625C8.03865 0.586529 8.09153 0.596957 8.14089 0.617312C8.19024 0.637666 8.2351 0.667548 8.27289 0.70525L12.2948 4.72712C12.3709 4.80331 12.4137 4.90662 12.4137 5.01434C12.4137 5.12207 12.3709 5.22538 12.2948 5.30156C11.9048 5.69156 11.4238 5.77931 11.0736 5.77931C10.9298 5.77931 10.8014 5.76469 10.6998 5.74762L8.15346 8.294C8.22049 8.56408 8.26399 8.83947 8.28346 9.11706C8.32083 9.68744 8.25746 10.4877 7.69846 11.0467C7.62227 11.1229 7.51896 11.1657 7.41124 11.1657C7.30351 11.1657 7.2002 11.1229 7.12402 11.0467L4.82546 8.749L2.24008 11.3344C2.08164 11.4928 1.24964 12.0672 1.09121 11.9088C0.932769 11.7504 1.50721 10.9176 1.66564 10.7599L4.25102 8.17456L1.95327 5.876C1.87711 5.79982 1.83432 5.6965 1.83432 5.58878C1.83432 5.48106 1.87711 5.37775 1.95327 5.30156C2.51227 4.74256 3.31258 4.67837 3.88296 4.71656C4.16055 4.73601 4.43594 4.77951 4.70602 4.84656L7.25239 2.301C7.23114 2.17727 7.22027 2.05198 7.21989 1.92644C7.21989 1.57706 7.30764 1.09606 7.69846 0.70525C7.77459 0.629306 7.87773 0.586648 7.98527 0.586625ZM8.08439 2.30262V2.301V2.30262ZM8.08439 2.301V2.30262C8.10786 2.3741 8.11101 2.45069 8.09351 2.52385C8.07601 2.59701 8.03854 2.66388 7.98527 2.717L5.11308 5.58837C5.05971 5.64151 4.99263 5.67877 4.91931 5.69599C4.84599 5.71321 4.76934 5.7097 4.69789 5.68587H4.69627L4.68489 5.68262C4.6076 5.65947 4.52955 5.63887 4.45089 5.62087C4.2465 5.5732 4.03867 5.54168 3.82933 5.52662C3.48646 5.50387 3.15008 5.53312 2.87464 5.6485L7.35152 10.1246C7.46608 9.84831 7.49533 9.51275 7.47258 9.16988C7.45188 8.87959 7.39957 8.59243 7.31658 8.3135L7.31333 8.30294V8.30212C7.28934 8.23057 7.28575 8.15375 7.30297 8.08027C7.3202 8.00679 7.35754 7.93957 7.41083 7.88613L10.2838 5.01394C10.3392 4.95828 10.4094 4.91983 10.4861 4.90325C10.5628 4.88667 10.6427 4.89266 10.7161 4.9205L10.7941 4.93837C10.8648 4.95219 10.9631 4.966 11.0736 4.966C11.1662 4.966 11.2605 4.95706 11.3523 4.9335L8.06571 1.64775C8.04214 1.73956 8.03321 1.83462 8.03321 1.92644C8.0336 2.05269 8.05054 2.17834 8.08358 2.30019L8.08439 2.301Z" fill="url(#paint0_linear_1_248)"/>
<defs>
<linearGradient id="paint0_linear_1_248" x1="6.73878" y1="0.586624" x2="6.73878" y2="11.9362" gradientUnits="userSpaceOnUse">
<stop stop-color="#BD00FF"/>
<stop offset="1" stop-color="#74009C"/>
</linearGradient>
</defs>
</svg>
