<svg width="8" height="10" viewBox="0 0 8 10" fill="none" xmlns="http://www.w3.org/2000/svg">
<path fill-rule="evenodd" clip-rule="evenodd" d="M5.22126 1.02875C5.25036 1.05778 5.27345 1.09226 5.2892 1.13023C5.30496 1.1682 5.31307 1.2089 5.31307 1.25C5.31307 1.29111 5.30496 1.33181 5.2892 1.36977C5.27345 1.40774 5.25036 1.44222 5.22126 1.47125L1.69188 5L5.22126 8.52875C5.27994 8.58743 5.3129 8.66702 5.3129 8.75C5.3129 8.83299 5.27994 8.91257 5.22126 8.97125C5.16258 9.02993 5.08299 9.0629 5.00001 9.0629C4.91702 9.0629 4.83744 9.02993 4.77876 8.97125L1.02876 5.22125C0.999657 5.19222 0.976568 5.15774 0.960814 5.11977C0.94506 5.08181 0.936951 5.04111 0.936951 5C0.936951 4.9589 0.94506 4.9182 0.960814 4.88023C0.976568 4.84227 0.999657 4.80778 1.02876 4.77875L4.77876 1.02875C4.80779 0.99965 4.84227 0.97656 4.88024 0.960806C4.9182 0.945052 4.9589 0.936943 5.00001 0.936943C5.04111 0.936943 5.08181 0.945052 5.11978 0.960806C5.15775 0.97656 5.19223 0.99965 5.22126 1.02875Z" fill="url(#paint0_linear_1_424)"/>
<path fill-rule="evenodd" clip-rule="evenodd" d="M7.72126 1.02875C7.75036 1.05778 7.77345 1.09226 7.7892 1.13023C7.80496 1.1682 7.81307 1.2089 7.81307 1.25C7.81307 1.29111 7.80496 1.33181 7.7892 1.36977C7.77345 1.40774 7.75036 1.44222 7.72126 1.47125L4.19188 5L7.72126 8.52875C7.75031 8.55781 7.77336 8.5923 7.78909 8.63026C7.80481 8.66822 7.8129 8.70891 7.8129 8.75C7.8129 8.79109 7.80481 8.83178 7.78909 8.86974C7.77336 8.9077 7.75031 8.9422 7.72126 8.97125C7.6922 9.00031 7.65771 9.02335 7.61975 9.03908C7.58179 9.0548 7.5411 9.0629 7.50001 9.0629C7.45892 9.0629 7.41823 9.0548 7.38027 9.03908C7.34231 9.02335 7.30781 9.00031 7.27876 8.97125L3.52876 5.22125C3.49966 5.19222 3.47657 5.15774 3.46081 5.11977C3.44506 5.08181 3.43695 5.04111 3.43695 5C3.43695 4.9589 3.44506 4.9182 3.46081 4.88023C3.47657 4.84227 3.49966 4.80778 3.52876 4.77875L7.27876 1.02875C7.30779 0.99965 7.34227 0.97656 7.38024 0.960806C7.4182 0.945052 7.4589 0.936943 7.50001 0.936943C7.54111 0.936943 7.58181 0.945052 7.61978 0.960806C7.65775 0.97656 7.69223 0.99965 7.72126 1.02875Z" fill="url(#paint1_linear_1_424)"/>
<defs>
<linearGradient id="paint0_linear_1_424" x1="3.12501" y1="0.936943" x2="3.12501" y2="9.0629" gradientUnits="userSpaceOnUse">
<stop stop-color="#5A8FFF"/>
<stop offset="1" stop-color="#003094"/>
</linearGradient>
<linearGradient id="paint1_linear_1_424" x1="5.62501" y1="0.936943" x2="5.62501" y2="9.0629" gradientUnits="userSpaceOnUse">
<stop stop-color="#5A8FFF"/>
<stop offset="1" stop-color="#003094"/>
</linearGradient>
</defs>
</svg>
