<svg width="29" height="28" viewBox="0 0 29 28" fill="none" xmlns="http://www.w3.org/2000/svg">
<rect x="0.25" y="0.75" width="28.5" height="26.5" rx="4.75" stroke="url(#paint0_linear_1_330)" stroke-width="0.5"/>
<g clip-path="url(#clip0_1_330)">
<path d="M8.875 8.375V21.0312C8.87494 21.1126 8.89608 21.1927 8.93634 21.2634C8.97659 21.3342 9.03458 21.3932 9.10459 21.4347C9.17459 21.4763 9.25421 21.4989 9.3356 21.5003C9.41699 21.5017 9.49734 21.4819 9.56875 21.4428L14.5 18.7522L19.4313 21.4428C19.5027 21.4819 19.583 21.5017 19.6644 21.5003C19.7458 21.4989 19.8254 21.4763 19.8954 21.4347C19.9654 21.3932 20.0234 21.3342 20.0637 21.2634C20.1039 21.1927 20.1251 21.1126 20.125 21.0312V8.375C20.125 7.87772 19.9275 7.40081 19.5758 7.04917C19.2242 6.69754 18.7473 6.5 18.25 6.5H10.75C10.2527 6.5 9.77581 6.69754 9.42417 7.04917C9.07254 7.40081 8.875 7.87772 8.875 8.375Z" fill="url(#paint1_linear_1_330)"/>
</g>
<defs>
<linearGradient id="paint0_linear_1_330" x1="14.5" y1="0.5" x2="14.5" y2="27.5" gradientUnits="userSpaceOnUse">
<stop stop-color="#5A8FFF"/>
<stop offset="1" stop-color="#003094"/>
</linearGradient>
<linearGradient id="paint1_linear_1_330" x1="14.5" y1="6.5" x2="14.5" y2="21.5003" gradientUnits="userSpaceOnUse">
<stop stop-color="#5A8FFF"/>
<stop offset="1" stop-color="#003094"/>
</linearGradient>
<clipPath id="clip0_1_330">
<rect width="15" height="15" fill="white" transform="translate(7 6.5)"/>
</clipPath>
</defs>
</svg>
