<svg width="12" height="12" viewBox="0 0 12 12" fill="none" xmlns="http://www.w3.org/2000/svg">
<g clip-path="url(#clip0_1_392)">
<path d="M8.57104 8.92521L11.0726 11.4267L11.0727 11.4269C11.1196 11.4738 11.1832 11.5002 11.2495 11.5002C11.3159 11.5002 11.3795 11.4739 11.4264 11.427C11.4734 11.3801 11.4998 11.3165 11.4998 11.2501C11.4998 11.1838 11.4735 11.1203 11.4267 11.0733L8.57104 8.92521ZM8.57104 8.92521L8.7211 8.72044L8.92452 8.57115L11.4266 11.0732L8.57104 8.92521ZM8.14537 8.1454C8.20056 8.09021 8.25428 8.03369 8.3065 7.97591V8.30653H7.97588C8.03366 8.25431 8.09018 8.20059 8.14537 8.1454Z" fill="#B4B4B4" stroke="#919090"/>
</g>
<defs>
<clipPath id="clip0_1_392">
<rect width="12" height="12" rx="5" fill="white"/>
</clipPath>
</defs>
</svg>
