<svg width="10" height="10" viewBox="0 0 10 10" fill="none" xmlns="http://www.w3.org/2000/svg">
<g clip-path="url(#clip0_1_305)">
<path fill-rule="evenodd" clip-rule="evenodd" d="M4.99961 9.375C4.91673 9.375 4.83724 9.34208 4.77863 9.28347C4.72003 9.22487 4.68711 9.14538 4.68711 9.0625L4.68711 1.69187L2.72086 3.65875C2.66218 3.71743 2.58259 3.75039 2.49961 3.75039C2.41662 3.75039 2.33704 3.71743 2.27836 3.65875C2.21968 3.60007 2.18671 3.52048 2.18671 3.4375C2.18671 3.35451 2.21968 3.27493 2.27836 3.21625L4.77836 0.716249C4.80738 0.687148 4.84187 0.664058 4.87984 0.648305C4.9178 0.632551 4.9585 0.624441 4.99961 0.624441C5.04071 0.624441 5.08141 0.632551 5.11938 0.648305C5.15734 0.664058 5.19183 0.687148 5.22086 0.716249L7.72086 3.21625C7.77953 3.27493 7.8125 3.35452 7.8125 3.4375C7.8125 3.52048 7.77953 3.60007 7.72086 3.65875C7.66218 3.71743 7.58259 3.75039 7.49961 3.75039C7.41662 3.75039 7.33703 3.71743 7.27836 3.65875L5.31211 1.69187L5.31211 9.0625C5.31211 9.14538 5.27918 9.22487 5.22058 9.28347C5.16197 9.34208 5.08249 9.375 4.99961 9.375Z" fill="url(#paint0_linear_1_305)"/>
</g>
<defs>
<linearGradient id="paint0_linear_1_305" x1="4.99961" y1="9.375" x2="4.99961" y2="0.624441" gradientUnits="userSpaceOnUse">
<stop stop-color="#5A8FFF"/>
<stop offset="1" stop-color="#003094"/>
</linearGradient>
<clipPath id="clip0_1_305">
<rect width="10" height="10" fill="white" transform="translate(10 10) rotate(-180)"/>
</clipPath>
</defs>
</svg>
