<svg width="16" height="16" viewBox="0 0 16 16" fill="none" xmlns="http://www.w3.org/2000/svg">
<path d="M13.854 3.646C13.9006 3.69245 13.9375 3.74762 13.9627 3.80837C13.9879 3.86911 14.0009 3.93423 14.0009 4C14.0009 4.06577 13.9879 4.13089 13.9627 4.19163C13.9375 4.25238 13.9006 4.30756 13.854 4.354L6.85402 11.354C6.80758 11.4006 6.7524 11.4375 6.69166 11.4627C6.63091 11.4879 6.56579 11.5009 6.50002 11.5009C6.43425 11.5009 6.36913 11.4879 6.30839 11.4627C6.24764 11.4375 6.19247 11.4006 6.14602 11.354L2.64602 7.854C2.55213 7.76011 2.49939 7.63278 2.49939 7.5C2.49939 7.36723 2.55213 7.23989 2.64602 7.146C2.73991 7.05211 2.86725 6.99937 3.00002 6.99937C3.1328 6.99937 3.26013 7.05211 3.35402 7.146L6.50002 10.293L13.146 3.646C13.1925 3.59944 13.2476 3.5625 13.3084 3.53729C13.3691 3.51208 13.4343 3.49911 13.5 3.49911C13.5658 3.49911 13.6309 3.51208 13.6917 3.53729C13.7524 3.5625 13.8076 3.59944 13.854 3.646Z" fill="url(#paint0_linear_1_282)"/>
<defs>
<linearGradient id="paint0_linear_1_282" x1="8.25015" y1="3.49911" x2="8.25015" y2="11.5009" gradientUnits="userSpaceOnUse">
<stop stop-color="#00DC4B"/>
<stop offset="1" stop-color="#009231"/>
</linearGradient>
</defs>
</svg>
