<svg width="13" height="7" viewBox="0 0 13 7" fill="none" xmlns="http://www.w3.org/2000/svg">
<path d="M12.0165 6.5C12.0165 6.36739 11.9667 6.24021 11.8779 6.14645C11.7892 6.05268 11.6688 6 11.5433 6H8.7038C8.57829 6 8.45792 6.05268 8.36916 6.14645C8.28041 6.24021 8.23055 6.36739 8.23055 6.5C8.23055 6.63261 8.28041 6.75979 8.36916 6.85355C8.45792 6.94732 8.57829 7 8.7038 7H11.5433C11.6688 7 11.7892 6.94732 11.8779 6.85355C11.9667 6.75979 12.0165 6.63261 12.0165 6.5ZM12.0165 3.5C12.0165 3.36739 11.9667 3.24021 11.8779 3.14645C11.7892 3.05268 11.6688 3 11.5433 3H4.91781C4.7923 3 4.67192 3.05268 4.58317 3.14645C4.49442 3.24021 4.44456 3.36739 4.44456 3.5C4.44456 3.63261 4.49442 3.75979 4.58317 3.85355C4.67192 3.94732 4.7923 4 4.91781 4H11.5433C11.6688 4 11.7892 3.94732 11.8779 3.85355C11.9667 3.75979 12.0165 3.63261 12.0165 3.5ZM12.0165 0.5C12.0165 0.367392 11.9667 0.240215 11.8779 0.146447C11.7892 0.0526785 11.6688 0 11.5433 0H1.13182C1.0063 0 0.885932 0.0526785 0.797181 0.146447C0.708429 0.240215 0.658569 0.367392 0.658569 0.5C0.658569 0.632608 0.708429 0.759785 0.797181 0.853553C0.885932 0.947321 1.0063 1 1.13182 1H11.5433C11.6688 1 11.7892 0.947321 11.8779 0.853553C11.9667 0.759785 12.0165 0.632608 12.0165 0.5Z" fill="#B4B4B4"/>
</svg>
